2.5Hzhigh3min_grf.mot
version=1
nRows=27
nColumns 19
inDegrees=yes
endheader
time	1_ground_force_vx	1_ground_force_vy	1_ground_force_vz	1_ground_force_px	1_ground_force_py	1_ground_force_pz	1_ground_torque_x	1_ground_torque_y	1_ground_torque_z	2_ground_force_vx	2_ground_force_vy	2_ground_force_vz	2_ground_force_px	2_ground_force_py	2_ground_force_pz	2_ground_torque_x	2_ground_torque_y	2_ground_torque_z
            3.751500	            0.596356	            4.684860	            0.523033	           -0.233013	            0.005581	           -0.255695	            0.332299	           -0.221565	            0.042268	           -0.052345	            1.295731	           -1.919433	           -0.232311	            0.006130	           -0.833667	           -0.261901	           -0.321803	           -0.151837
            3.752000	            0.549847	            3.965165	            0.199064	           -0.233013	            0.005581	           -0.255695	            0.290117	           -0.415637	            0.020813	            0.835603	            1.853064	           -2.387121	           -0.232311	            0.006130	           -0.833667	           -0.356441	           -0.161178	           -0.226624
            3.752500	            0.504412	            3.604035	            0.335199	           -0.233013	            0.005581	           -0.255695	            0.340943	           -0.462102	            0.074940	            1.585969	            1.670785	           -2.153457	           -0.232311	            0.006130	           -0.833667	           -0.244309	           -0.000075	           -0.226099
            3.753000	            0.184227	            3.422527	            0.610358	           -0.233013	            0.005581	           -0.255695	            0.272847	           -0.258737	            0.024708	            1.730274	            0.747036	           -1.171312	           -0.232311	            0.006130	           -0.833667	           -0.188396	            0.123014	           -0.225684
            3.753500	            0.139621	            2.879755	            1.066712	           -0.233013	            0.005581	           -0.255695	            0.328634	           -0.018322	            0.004867	            1.212842	            1.477083	            0.145523	           -0.232311	            0.006130	           -0.833667	           -0.169245	            0.028353	           -0.169479
            3.754000	            0.140742	            3.598655	            1.574219	           -0.233013	            0.005581	           -0.255695	            0.363187	            0.119951	            0.099339	            0.369708	            1.472699	            0.521306	           -0.232311	            0.006130	           -0.833667	           -0.225346	           -0.038154	           -0.131990
            3.754500	            0.460813	            3.780359	            1.253204	           -0.233013	            0.005581	           -0.255695	            0.339225	           -0.009245	            0.093723	           -0.329840	            0.550424	            0.236751	           -0.232311	            0.006130	           -0.833667	           -0.205894	           -0.227006	           -0.170373
            3.755000	            0.688967	            5.223905	            0.937828	           -0.233013	            0.005581	           -0.255695	            0.220700	           -0.277313	            0.121389	           -0.472836	            1.106044	           -0.793636	           -0.232311	            0.006130	           -0.833667	           -0.074227	           -0.264611	           -0.095163
            3.755500	            0.688290	            2.702152	            0.468447	           -0.233013	            0.005581	           -0.255695	            0.222805	           -0.433903	           -0.010785	           -0.336727	            2.215123	           -1.822172	           -0.232311	            0.006130	           -0.833667	           -0.281122	           -0.199053	           -0.132540
            3.756000	            0.412450	            3.244075	            0.196313	           -0.233013	            0.005581	           -0.255695	            0.252932	           -0.434033	           -0.022608	            0.790000	            1.485268	           -2.576128	           -0.232311	            0.006130	           -0.833667	           -0.262948	           -0.047205	           -0.282810
            3.756500	            0.092864	            4.142786	            0.797101	           -0.233013	            0.005581	           -0.255695	            0.264447	           -0.193909	           -0.016524	            1.168993	            0.380057	           -2.110949	           -0.232311	            0.006130	           -0.833667	           -0.282084	            0.056506	           -0.225880
            3.757000	            0.093371	            3.240868	            0.930804	           -0.233013	            0.005581	           -0.255695	            0.390618	            0.027800	            0.021742	            1.304719	            1.849734	           -0.979477	           -0.232311	            0.006130	           -0.833667	           -0.282058	            0.047120	           -0.244764
            3.757500	            0.094216	            3.599826	            1.299197	           -0.233013	            0.005581	           -0.255695	            0.243186	            0.101974	           -0.033982	            1.072292	            1.476575	            0.145582	           -0.232311	            0.006130	           -0.833667	           -0.150116	           -0.084474	           -0.320693
            3.758000	            0.461316	            4.139908	            1.484030	           -0.233013	            0.005581	           -0.255695	            0.310312	           -0.045974	            0.037230	            0.183076	            1.287037	            0.755369	           -0.232311	            0.006130	           -0.833667	           -0.074729	           -0.141255	           -0.226676
            3.758500	            0.461172	            3.058903	            1.341824	           -0.233013	            0.005581	           -0.255695	            0.316640	           -0.304310	           -0.076643	           -0.189311	            0.551099	            0.189763	           -0.232311	            0.006130	           -0.833667	           -0.168470	           -0.179808	           -0.113670
            3.759000	            0.642998	            3.422026	            0.746788	           -0.233013	            0.005581	           -0.255695	            0.248206	           -0.489450	            0.005732	           -0.335068	            1.844149	           -1.072636	           -0.232311	            0.006130	           -0.833667	           -0.243797	           -0.141865	           -0.226605
            3.759500	            0.459057	            3.422974	            0.517964	           -0.233013	            0.005581	           -0.255695	            0.370610	           -0.313975	            0.017159	            0.085484	            2.033334	           -2.057649	           -0.232311	            0.006130	           -0.833667	           -0.281761	           -0.028703	           -0.188483
            3.760000	            0.504525	            3.603838	            0.381055	           -0.233013	            0.005581	           -0.255695	            0.394913	           -0.110277	           -0.055272	            0.693786	            2.220351	           -2.244963	           -0.232311	            0.006130	           -0.833667	           -0.356969	           -0.019253	           -0.263819
            3.760500	           -0.135650	            3.420696	            1.023858	           -0.233013	            0.005581	           -0.255695	            0.236332	            0.092453	           -0.006176	            1.213952	            0.931835	           -1.874357	           -0.232311	            0.006130	           -0.833667	           -0.244104	           -0.056791	           -0.226301
            3.761000	            0.047935	            2.879738	            1.066940	           -0.233013	            0.005581	           -0.255695	            0.291112	            0.064738	            0.020205	            1.449298	            0.745017	           -0.889623	           -0.232311	            0.006130	           -0.833667	           -0.225037	           -0.132412	           -0.207729
            3.761500	            0.185869	            3.780110	            1.299743	           -0.233013	            0.005581	           -0.255695	            0.336984	           -0.138294	           -0.031341	            0.791878	            1.291245	            0.191973	           -0.232311	            0.006130	           -0.833667	           -0.111969	           -0.217483	           -0.094979
            3.762000	            0.415638	            3.238570	            1.480279	           -0.233013	            0.005581	           -0.255695	            0.291981	           -0.341465	           -0.041106	            0.132800	            2.208446	            0.524034	           -0.232311	            0.006130	           -0.833667	           -0.112165	           -0.160834	           -0.075926
            3.762500	            0.734747	            4.322979	            0.842137	           -0.233013	            0.005581	           -0.255695	            0.318851	           -0.434011	            0.028469	           -0.380760	            1.655814	            0.053001	           -0.232311	            0.006130	           -0.833667	           -0.074986	           -0.056584	           -0.113272
            3.763000	            0.643211	            2.881032	            0.790325	           -0.233013	            0.005581	           -0.255695	            0.302741	           -0.304328	           -0.049985	           -0.096872	            0.740439	           -1.170534	           -0.232311	            0.006130	           -0.833667	           -0.225568	            0.027880	           -0.094054
            3.763500	            0.505080	            3.062255	            0.562160	           -0.233013	            0.005581	           -0.255695	            0.349882	           -0.036332	           -0.054824	            0.226157	            2.032837	           -1.776140	           -0.232311	            0.006130	           -0.833667	           -0.338142	           -0.019521	           -0.169575
            3.764000	            0.138579	            3.602391	            0.702957	           -0.233013	            0.005581	           -0.255695	            0.212298	            0.074238	           -0.032069	            0.889243	            0.010578	           -2.065215	           -0.232311	            0.006130	           -0.833667	           -0.225114	           -0.113440	           -0.226511
            3.764500	           -0.090864	            3.602740	            0.611814	           -0.233013	            0.005581	           -0.255695	            0.291470	            0.018362	            0.032914	            1.072799	            1.114973	           -1.732856	           -0.232311	            0.006130	           -0.833667	           -0.187160	           -0.217351	           -0.208048
